<?xml version="1.0" encoding="utf-8"?>
<!-- Generator: Adobe Illustrator 15.0.0, SVG Export Plug-In . SVG Version: 6.00 Build 0)  -->
<!DOCTYPE svg PUBLIC "-//W3C//DTD SVG 1.1//EN" "http://www.w3.org/Graphics/SVG/1.1/DTD/svg11.dtd">
<svg version="1.1" id="Layer_1" xmlns="http://www.w3.org/2000/svg" xmlns:xlink="http://www.w3.org/1999/xlink" x="0px" y="0px"
	 width="20px" height="46px" viewBox="0 0 20 46" enable-background="new 0 0 20 46" xml:space="preserve">
<g opacity="0.5">
	<path fill="#FFFFFF" d="M10.838,30.363l-0.822,3.4C10.489,32.679,10.752,31.541,10.838,30.363z M14.557,23.664
		c-0.462,1.261-0.877,2.525-1.473,3.721C13.942,26.286,14.291,24.984,14.557,23.664z M9.404,24.16
		c-0.429-0.291-0.558,0.024-0.689,0.305c-0.445,0.947-0.069,1.83,0.296,2.671c0.268,0.612,0.622,1.216,1.208,1.611
		c0.224,0.151,0.442,0.208,0.472-0.188c0.084-1.085,0.021-2.151-0.402-3.168C10.088,24.906,9.802,24.474,9.404,24.16z
		 M12.575,27.045c0.498-0.682,0.748-1.484,1.02-2.271c1.174-3.401,1.235-6.874,0.719-10.397c-0.346-2.354-0.912-4.652-1.561-6.935
		c-0.06-0.208-0.127-0.417-0.073-0.636c0.063-0.246,0.172-0.377,0.376-0.107c0.05,0.066,0.053,0.197,0.173,0.098
		c0.414-0.343,0.651-0.02,0.887,0.243c0.44,0.496,0.627,1.13,0.865,1.726c0.664,1.667,1.269,3.36,1.645,5.117
		c0.349,1.631,0.458,3.296,0.52,4.961c0.04,1.061,0.065,2.141-0.261,3.144c-0.217,0.666-0.172,1.349-0.377,2.004
		c-0.394,1.255-0.799,2.5-1.463,3.646c-0.548,0.942-1.291,1.683-2.264,2.176c-0.32,0.163-0.492,0.401-0.558,0.737
		c-0.175,0.906-0.38,1.81-0.595,2.703c-0.35,1.453-0.929,2.845-1.558,4.203c-1.002,2.169-2.208,4.208-3.899,5.927
		c-0.992,1.009-2.037,1.94-3.49,2.234c-0.383,0.076-0.75,0.079-1.088-0.158C1.447,45.356,1.367,45.235,1.4,45.05
		c0.04-0.22,0.17-0.155,0.334-0.161c1.121-0.041,1.788-0.84,2.498-1.552c1.956-1.958,3.222-4.353,4.306-6.86
		c0.829-1.918,1.463-3.898,1.865-5.95c0.032-0.164,0.153-0.338-0.16-0.391c-1.091-0.183-1.916-0.811-2.558-1.666
		c-0.99-1.321-1.542-2.776-1.023-4.442c0.279-0.895,0.853-1.237,1.785-1.257c2.375-0.052,3.729,1.723,3.94,3.698
		c0.019,0.177,0.037,0.354,0.056,0.531C12.488,27.015,12.531,27.029,12.575,27.045z"/>
	<path fill="#FFFFFF" d="M10.822,5.128c0.303-1.064,0.454-2.146,0.386-3.25C11.08,2.961,10.951,4.045,10.822,5.128z M15.726,5.74
		c-0.923-0.636-1.721-1.419-2.547-2.167c-0.125-0.112-0.21-0.309-0.443-0.214c-0.226,0.09-0.19,0.296-0.191,0.457
		c0,0.878-0.258,1.707-0.42,2.557c-0.102,0.537-0.104,1.098-0.227,1.646c-0.188,0.845-0.313,1.705-0.441,2.561
		c-0.066,0.433-0.332,0.818-0.231,1.3c0.1,0.472-0.188,0.723-0.896,0.761c-0.361,0.019-0.733-0.122-0.765-0.578
		c-0.026-0.375-0.023-0.758,0.025-1.131c0.317-2.463,0.654-4.923,0.975-7.385c0.072-0.553,0.106-1.11,0.152-1.667
		c0.082-1.011,0.397-1.254,1.412-1.156c0.787,0.074,1.38,0.428,1.866,1.045c0.937,1.187,1.906,2.347,3.055,3.341
		c0.23,0.199,0.488,0.365,0.726,0.557c0.276,0.219,0.261,0.406-0.078,0.545C16.945,6.52,16.786,6.482,15.726,5.74z"/>
</g>
</svg>
